<?xml version="1.0" encoding="UTF-8" standalone="no"?>
<svg
   xmlns:dc="http://purl.org/dc/elements/1.1/"
   xmlns:cc="http://creativecommons.org/ns#"
   xmlns:rdf="http://www.w3.org/1999/02/22-rdf-syntax-ns#"
   xmlns:svg="http://www.w3.org/2000/svg"
   xmlns="http://www.w3.org/2000/svg"
   xmlns:sodipodi="http://sodipodi.sourceforge.net/DTD/sodipodi-0.dtd"
   xmlns:inkscape="http://www.inkscape.org/namespaces/inkscape"
   version="1.1"
   id="svg2"
   width="1306.6667"
   height="1144"
   viewBox="0 0 1306.6667 1144"
   sodipodi:docname="danger_electricity.svg"
   inkscape:version="1.0.2 (e86c870879, 2021-01-15)">
  <metadata
     id="metadata8">
    <rdf:RDF>
      <cc:Work
         rdf:about="">
        <dc:format>image/svg+xml</dc:format>
        <dc:type
           rdf:resource="http://purl.org/dc/dcmitype/StillImage" />
        <dc:title></dc:title>
      </cc:Work>
    </rdf:RDF>
  </metadata>
  <defs
     id="defs6" />
  <sodipodi:namedview
     pagecolor="#ffffff"
     bordercolor="#666666"
     borderopacity="1"
     objecttolerance="10"
     gridtolerance="10"
     guidetolerance="10"
     inkscape:pageopacity="0"
     inkscape:pageshadow="2"
     inkscape:window-width="2560"
     inkscape:window-height="1420"
     id="namedview4"
     showgrid="false"
     inkscape:zoom="0.86785709"
     inkscape:cx="449.95888"
     inkscape:cy="572"
     inkscape:window-x="0"
     inkscape:window-y="0"
     inkscape:window-maximized="0"
     inkscape:current-layer="g10" />
  <g
     inkscape:groupmode="layer"
     inkscape:label="Image"
     id="g10">
    <path
       style="fill:#000000;stroke-width:1.33333"
       d="M 111.93999,1138.0374 C 59.309381,1122.8809 29.032791,1100.8298 12.048941,1065.2848 -1.8154289,1036.2685 -3.4829589,1005.4208 6.7243511,966.7851 10.657911,951.8962 17.685831,932.4921 22.962481,921.9515 30.069711,907.7543 176.2207,660.95693 371.95997,332.6182 514.94172,92.776465 523.09268,79.362939 534.17902,65.664419 c 18.94453,-23.40828 39.20601,-39.99332 62.42765,-51.10015 19.29496,-9.2287204 30.22531,-12.0448404 50,-12.8821403 20.62268,-0.87319999 34.84383,1.5265999 54.48116,9.1936203 20.14583,7.86555 41.50949,23.42798 62.35105,45.41985 18.46405,19.48314 6.68402,0.50151 161.14281,259.655931 151.49931,254.18907 326.63501,549.38057 349.88621,589.73387 18.0429,31.3141 29.9271,67.9352 31.7701,97.8994 3.1567,51.3234 -22.615,94.9451 -70.298,118.988 -26.7758,13.5009 -43.0901,17.165 -83.3333,18.716 -18.1054,0.6978 -247.65631,1.2183 -528.66669,1.1988 l -496.66668,-0.034 z M 1156.24,1017.0174 c 10.2181,-5.4462 20.397,-14.5915 23.9143,-21.48591 3.4853,-6.83179 4.6097,-18.89179 2.5329,-27.16809 -0.8849,-3.5265 -4.6763,-11.8119 -8.4254,-18.4119 -45.3398,-79.8174 -444.84991,-747.41108 -480.12858,-802.3096 -9.18495,-14.29305 -25.59657,-23.69037 -41.37321,-23.69037 -9.75152,0 -17.34658,2.34872 -26.41728,8.16937 -7.25504,4.65555 -9.56403,8.11303 -52.42231,78.4973 -92.36564,151.68805 -323.89653,536.80676 -401.59729,668 -40.628,68.598 -44.99278,76.4165 -47.58739,85.242 -6.53315,22.2223 2.12453,42.3647 22.13695,51.5025 7.47484,3.4131 10.38433,3.9253 26.40064,4.6477 9.9,0.4465 233.31602,0.916 496.48004,1.0432 l 478.48003,0.2312 z M 494.03895,972.5196 c 0.87135,-3.6388 34.80789,-107.0143 73.44047,-223.71002 10.88498,-32.87978 16.25564,-50.92966 15.40654,-51.77876 -0.76836,-0.76836 -23.86788,-1.77186 -56.26661,-2.44438 -30.22971,-0.6275 -55.18709,-1.36487 -55.46084,-1.63863 -0.27376,-0.27375 4.03908,-11.25991 9.58407,-24.41367 5.54498,-13.15377 27.76236,-66.51594 49.37193,-118.58261 21.60957,-52.06667 40.18208,-95.56667 41.27224,-96.66667 1.72675,-1.74232 14.84543,-2 101.82338,-2 54.91269,0 100.26132,0.42012 100.77472,0.9336 0.5134,0.51347 -7.19496,20.31347 -17.12971,44 -21.62396,51.55606 -45.58965,109.90334 -46.85189,114.0664 l -0.90962,3 75.08986,0.0687 75.0899,0.0686 -162.00005,161.41116 C 511.69707,959.735 492.66802,978.2446 494.03895,972.5196 Z"
       id="path14" />
  </g>
</svg>
